<svg width="880" height="873" viewBox="0 0 880 873" fill="none" xmlns="http://www.w3.org/2000/svg">
<rect y="359.025" width="334" height="37" fill="#FFC700"/>
<path d="M480.009 359.027V249.936H514.739V290.561H522.409L548.901 249.936H589.099L552.381 304.553L589.455 359.027H548.759L524.824 322.806H514.739V359.027H480.009ZM620.705 281.471H653.801C668.811 281.471 680.577 284.998 689.099 292.053C697.622 299.06 701.907 308.578 701.955 320.604C701.907 328.417 699.942 335.211 696.06 340.988C692.224 346.717 686.708 351.167 679.511 354.34C672.362 357.465 663.792 359.027 653.801 359.027H600.321V249.936H633.205V332.465H653.801C658.347 332.465 662.087 331.352 665.023 329.127C667.958 326.901 669.45 324.037 669.497 320.533C669.45 316.84 667.958 313.833 665.023 311.513C662.087 309.193 658.347 308.033 653.801 308.033H620.705V281.471ZM711.756 359.027V249.936H746.486V359.027H711.756ZM763.158 359.027L762.945 332.252H766.425C768.793 332.252 770.853 331.636 772.604 330.405C774.356 329.174 775.824 327.209 777.008 324.51C778.192 321.764 779.138 318.237 779.849 313.928C780.559 309.619 781.009 304.387 781.198 298.232L782.974 249.936H869.337V359.027H836.454V276.499H813.869L812.164 307.891C811.738 317.124 810.531 325.007 808.542 331.542C806.601 338.028 803.949 343.284 800.587 347.309C797.273 351.333 793.343 354.292 788.798 356.186C784.252 358.08 779.115 359.027 773.386 359.027H763.158Z" fill="white"/>
<path d="M415.812 416.02L490.913 416.02L522.399 497.039L457.153 522.396L415.812 416.02Z" fill="#F57C47"/>
<path d="M354.023 257.001L354.023 63.755L471.985 367.291L406.739 392.647L354.023 257.001Z" fill="#F57C47"/>
<rect x="264" y="0.0273438" width="70" height="872" fill="url(#paint0_linear_887_2)"/>
<path d="M354.421 545.527V452.028L495.843 593.449L354.421 734.871L354.421 651.199L411 593.449L354.421 545.527Z" fill="#3A68B8"/>
<path d="M201.369 603.118C201.369 623.123 197.522 640.08 189.828 653.988C182.134 667.897 171.717 678.462 158.578 685.682C145.498 692.903 130.82 696.513 114.544 696.513C98.2088 696.513 83.5012 692.873 70.4212 685.593C57.3411 678.314 46.9541 667.749 39.2599 653.9C31.625 639.991 27.8075 623.064 27.8075 603.118C27.8075 583.114 31.625 566.157 39.2599 552.248C46.9541 538.34 57.3411 527.775 70.4212 520.554C83.5012 513.334 98.2088 509.723 114.544 509.723C130.82 509.723 145.498 513.334 158.578 520.554C171.717 527.775 182.134 538.34 189.828 552.248C197.522 566.157 201.369 583.114 201.369 603.118ZM156.447 603.118C156.447 591.281 154.761 581.279 151.387 573.111C148.073 564.944 143.279 558.759 137.005 554.556C130.79 550.354 123.304 548.253 114.544 548.253C105.844 548.253 98.3568 550.354 92.0831 554.556C85.8094 558.759 80.9858 564.944 77.6122 573.111C74.2978 581.279 72.6406 591.281 72.6406 603.118C72.6406 614.955 74.2978 624.958 77.6122 633.125C80.9858 641.293 85.8094 647.478 92.0831 651.68C98.3568 655.882 105.844 657.983 114.544 657.983C123.304 657.983 130.79 655.882 137.005 651.68C143.279 647.478 148.073 641.293 151.387 633.125C154.761 624.958 156.447 614.955 156.447 603.118Z" fill="#F57C47"/>
<path d="M509.48 692.201V633.252H517.648C520.11 632.021 522.075 629.653 523.543 626.15C525.01 622.598 526.17 618.455 527.023 613.721C527.922 608.938 528.585 603.967 529.011 598.806C529.485 593.597 529.911 588.697 530.29 584.104L532.847 550.936H621.199V633.252H638.244V692.201H605.29V660.027H543.287V692.201H509.48ZM551.455 633.252H588.812V576.789H561.824L561.256 584.104C560.593 595.846 559.551 605.695 558.131 613.65C556.71 621.604 554.485 628.138 551.455 633.252ZM705.237 662.087C693.778 662.087 683.93 659.743 675.691 655.056C667.5 650.321 661.179 643.739 656.728 635.311C652.325 626.836 650.123 617.011 650.123 605.837C650.123 594.615 652.325 584.791 656.728 576.363C661.179 567.887 667.5 561.306 675.691 556.618C683.93 551.883 693.778 549.516 705.237 549.516C716.695 549.516 726.52 551.883 734.711 556.618C742.95 561.306 749.271 567.887 753.674 576.363C758.125 584.791 760.35 594.615 760.35 605.837C760.35 617.011 758.125 626.836 753.674 635.311C749.271 643.739 742.95 650.321 734.711 655.056C726.52 659.743 716.695 662.087 705.237 662.087ZM705.45 635.88C709.616 635.88 713.144 634.601 716.032 632.044C718.92 629.488 721.122 625.936 722.637 621.391C724.2 616.846 724.981 611.59 724.981 605.624C724.981 599.563 724.2 594.26 722.637 589.715C721.122 585.169 718.92 581.618 716.032 579.061C713.144 576.505 709.616 575.226 705.45 575.226C701.141 575.226 697.495 576.505 694.512 579.061C691.576 581.618 689.327 585.169 687.765 589.715C686.25 594.26 685.492 599.563 685.492 605.624C685.492 611.59 686.25 616.846 687.765 621.391C689.327 625.936 691.576 629.488 694.512 632.044C697.495 634.601 701.141 635.88 705.45 635.88Z" fill="white"/>
<rect x="354" y="359.027" width="526" height="37" fill="#00C2FF"/>
<defs>
<linearGradient id="paint0_linear_887_2" x1="215.5" y1="322.216" x2="548.608" y2="565.634" gradientUnits="userSpaceOnUse">
<stop stop-color="#FF00D6"/>
<stop offset="1" stop-color="#3ED1FF"/>
</linearGradient>
</defs>
</svg>
