<svg width="880" height="872" viewBox="0 0 880 872" fill="none" xmlns="http://www.w3.org/2000/svg">
<rect y="359" width="334" height="37" fill="#FFC700"/>
<path d="M480.009 359.002V249.911H514.739V290.536H522.409L548.901 249.911H589.099L552.381 304.528L589.455 359.002H548.759L524.824 322.78H514.739V359.002H480.009ZM620.705 281.445H653.801C668.811 281.445 680.577 284.973 689.099 292.028C697.622 299.035 701.907 308.552 701.955 320.579C701.907 328.391 699.942 335.186 696.06 340.962C692.224 346.691 686.708 351.142 679.511 354.314C672.362 357.439 663.792 359.002 653.801 359.002H600.321V249.911H633.205V332.439H653.801C658.347 332.439 662.087 331.327 665.023 329.101C667.958 326.876 669.45 324.011 669.497 320.508C669.45 316.814 667.958 313.808 665.023 311.488C662.087 309.168 658.347 308.008 653.801 308.008H620.705V281.445ZM711.756 359.002V249.911H746.486V359.002H711.756ZM763.158 359.002L762.945 332.226H766.425C768.793 332.226 770.853 331.611 772.604 330.38C774.356 329.149 775.824 327.184 777.008 324.485C778.192 321.739 779.138 318.211 779.849 313.903C780.559 309.594 781.009 304.362 781.198 298.206L782.974 249.911H869.337V359.002H836.454V276.474H813.869L812.164 307.866C811.738 317.099 810.531 324.982 808.542 331.516C806.601 338.003 803.949 343.259 800.587 347.283C797.273 351.308 793.343 354.267 788.798 356.161C784.252 358.055 779.115 359.002 773.386 359.002H763.158Z" fill="black"/>
<path d="M354.003 256.94L354.004 63.6964L471.66 366.445L406.414 391.802L354.003 256.94Z" fill="#F57C47"/>
<path d="M415.817 416.002L490.917 416.002L522.4 497.014L457.154 522.37L415.817 416.002Z" fill="#F57C47"/>
<rect x="264" y="0.00195312" width="70" height="872" fill="url(#paint0_linear_716_15)"/>
<path d="M354.421 545.502V452.002L495.843 593.424L354.421 734.845L354.421 651.174L411 593.424L354.421 545.502Z" fill="#3A68B8"/>
<path d="M201.369 603.093C201.369 623.098 197.522 640.054 189.828 653.963C182.134 667.872 171.717 678.436 158.578 685.657C145.498 692.877 130.82 696.488 114.544 696.488C98.2088 696.488 83.5012 692.848 70.4212 685.568C57.3411 678.288 46.9541 667.724 39.2599 653.874C31.625 639.965 27.8075 623.038 27.8075 603.093C27.8075 583.088 31.625 566.131 39.2599 552.223C46.9541 538.314 57.3411 527.75 70.4212 520.529C83.5012 513.308 98.2088 509.698 114.544 509.698C130.82 509.698 145.498 513.308 158.578 520.529C171.717 527.75 182.134 538.314 189.828 552.223C197.522 566.131 201.369 583.088 201.369 603.093ZM156.447 603.093C156.447 591.256 154.761 581.253 151.387 573.086C148.073 564.918 143.279 558.733 137.005 554.531C130.79 550.329 123.304 548.228 114.544 548.228C105.844 548.228 98.3568 550.329 92.0831 554.531C85.8094 558.733 80.9858 564.918 77.6122 573.086C74.2978 581.253 72.6406 591.256 72.6406 603.093C72.6406 614.93 74.2978 624.932 77.6122 633.1C80.9858 641.268 85.8094 647.452 92.0831 651.655C98.3568 655.857 105.844 657.958 114.544 657.958C123.304 657.958 130.79 655.857 137.005 651.655C143.279 647.452 148.073 641.268 151.387 633.1C154.761 624.932 156.447 614.93 156.447 603.093Z" fill="#F57C47"/>
<path d="M509.48 692.175V633.226H517.648C520.11 631.995 522.075 629.628 523.543 626.124C525.01 622.573 526.17 618.43 527.023 613.695C527.922 608.913 528.585 603.941 529.011 598.78C529.485 593.572 529.911 588.671 530.29 584.079L532.847 550.911H621.199V633.226H638.244V692.175H605.29V660.002H543.287V692.175H509.48ZM551.455 633.226H588.812V576.763H561.824L561.256 584.079C560.593 595.821 559.551 605.67 558.131 613.624C556.71 621.579 554.485 628.113 551.455 633.226ZM705.237 662.062C693.778 662.062 683.93 659.718 675.691 655.03C667.5 650.296 661.179 643.714 656.728 635.286C652.325 626.811 650.123 616.986 650.123 605.812C650.123 594.59 652.325 584.765 656.728 576.337C661.179 567.862 667.5 561.28 675.691 556.593C683.93 551.858 693.778 549.491 705.237 549.491C716.695 549.491 726.52 551.858 734.711 556.593C742.95 561.28 749.271 567.862 753.674 576.337C758.125 584.765 760.35 594.59 760.35 605.812C760.35 616.986 758.125 626.811 753.674 635.286C749.271 643.714 742.95 650.296 734.711 655.03C726.52 659.718 716.695 662.062 705.237 662.062ZM705.45 635.854C709.616 635.854 713.144 634.576 716.032 632.019C718.92 629.462 721.122 625.911 722.637 621.366C724.2 616.82 724.981 611.564 724.981 605.599C724.981 599.538 724.2 594.235 722.637 589.689C721.122 585.144 718.92 581.593 716.032 579.036C713.144 576.479 709.616 575.201 705.45 575.201C701.141 575.201 697.495 576.479 694.512 579.036C691.576 581.593 689.327 585.144 687.765 589.689C686.25 594.235 685.492 599.538 685.492 605.599C685.492 611.564 686.25 616.82 687.765 621.366C689.327 625.911 691.576 629.462 694.512 632.019C697.495 634.576 701.141 635.854 705.45 635.854Z" fill="black"/>
<rect x="354" y="359.002" width="526" height="37" fill="#00C2FF"/>
<defs>
<linearGradient id="paint0_linear_716_15" x1="215.5" y1="322.191" x2="548.608" y2="565.608" gradientUnits="userSpaceOnUse">
<stop stop-color="#FF00D6"/>
<stop offset="1" stop-color="#3ED1FF"/>
</linearGradient>
</defs>
</svg>
